<svg xmlns="http://www.w3.org/2000/svg" xmlns:xlink="http://www.w3.org/1999/xlink" viewBox="0 0 999.584 1080.001"><defs><style>.a{fill:url(#a);}</style><linearGradient id="a" x1="0.84" x2="0.226" y2="1" gradientUnits="objectBoundingBox"><stop offset="0" stop-color="#cbf7f7"/><stop offset="0.31" stop-color="#99cddc"/><stop offset="0.764" stop-color="#458ab5"/><stop offset="1" stop-color="#337bac"/></linearGradient></defs><path class="a" d="M1086.824,1104.377H87.629c-.516-10.445-.52-20.79-.011-30.747a270.74,270.74,0,0,1,2.825-27.7,244.849,244.849,0,0,1,5.162-24.771,227.606,227.606,0,0,1,7-21.962,211.409,211.409,0,0,1,36.342-62.148c6.526-7.753,14.631-15.286,24.016-24.009l0,0c12.992-12.076,29.16-27.1,47.376-48.682,9.987-11.831,19.467-24.253,28.983-37.977,10.8-15.576,21.6-32.843,32.089-51.322a331.133,331.133,0,0,0,15.624-31.41c4.4-10.127,8.51-20.874,12.214-31.942a486.913,486.913,0,0,0,15.907-60.973c3.155-16.168,5.644-32.849,7.4-49.579,1.427-13.628,2-23.738,2.308-29.169.11-1.949.183-3.236.247-3.8,1.289-11.318.767-26.485-1.511-43.861-1.146-8.745-2.729-18.009-4.7-27.535-2.022-9.755-4.457-19.791-7.237-29.831-2.879-10.394-6.141-20.839-9.7-31.047-3.71-10.649-7.775-21.14-12.084-31.183a373.7,373.7,0,0,0-31.033-58.453c-12.48-18.892-25.706-37.471-39.311-55.222-10.881-14.2-22.031-27.9-33.138-40.73-18.96-21.9-31.291-33.713-31.413-33.83-.223-.271-5.534-6.738-12.16-15.867-6.166-8.5-14.694-21.014-20.3-32.4a284.551,284.551,0,0,1-16.675-41.863A276.757,276.757,0,0,1,97.14,88.905C93.408,65.619,93.229,45.65,93.1,31.069v-.018c-.021-2.353-.041-4.576-.074-6.676h993.8v1080Z" transform="translate(-87.239 -24.376)"/></svg>