<svg xmlns="http://www.w3.org/2000/svg" xmlns:xlink="http://www.w3.org/1999/xlink" viewBox="0 0 999.584 1080.001"><defs><style>.a{fill:url(#a);}.b,.c{stroke:none;}.c{fill:#707070;}</style><linearGradient id="a" x1="1" x2="0" y2="1" gradientUnits="objectBoundingBox"><stop offset="0" stop-color="#832c89"/><stop offset="0.527" stop-color="#75298f"/><stop offset="1" stop-color="#4f228e"/></linearGradient></defs><g class="a" transform="translate(-87.239 -24.376)"><path class="b" d="M 1086.323852539062 1103.875610351562 L 88.10552978515625 1103.875610351562 C 87.61359405517578 1093.612182617188 87.61744689941406 1083.447021484375 88.11733245849609 1073.65380859375 C 88.59666442871094 1064.25732421875 89.54559326171875 1054.955200195312 90.93746185302734 1046.005737304688 C 92.24519348144531 1037.597534179688 93.9783935546875 1029.2802734375 96.08892822265625 1021.285522460938 C 98.05853271484375 1013.824584960938 100.4078598022461 1006.451904296875 103.0714645385742 999.3720092773438 C 107.7937316894531 986.82080078125 113.6683959960938 974.745361328125 120.5325317382812 963.4810791015625 C 126.0718612670898 954.3908081054688 132.3955993652344 945.6056518554688 139.328125 937.36962890625 C 145.8345336914062 929.6403198242188 153.92919921875 922.116455078125 163.3021240234375 913.404541015625 L 163.2981262207031 913.4082641601562 L 163.3025360107422 913.404296875 L 163.3045349121094 913.4024047851562 L 163.3065338134766 913.4005737304688 C 176.3079986572266 901.316162109375 192.4886627197266 886.27685546875 210.7241363525391 864.6748046875 C 220.7209320068359 852.8323974609375 230.2108001708984 840.3977661132812 239.7358703613281 826.6600341796875 C 250.5446624755859 811.0704345703125 261.3489379882812 793.7904052734375 271.8486633300781 775.300048828125 C 277.4382629394531 765.4566650390625 282.7029418945312 754.8726806640625 287.4966735839844 743.8421630859375 C 291.9031982421875 733.7024536132812 296.0177307128906 722.94189453125 299.7259826660156 711.8592529296875 C 306.1129150390625 692.7705688476562 311.4702758789062 672.235107421875 315.6492004394531 650.8232421875 C 318.8073425292969 634.6406860351562 321.2980041503906 617.9453735351562 323.0521240234375 601.2009887695312 C 324.4804077148438 587.564453125 325.0537414550781 577.4473876953125 325.3616027832031 572.0120239257812 C 325.4715881347656 570.0686645507812 325.5441284179688 568.7874755859375 325.6065368652344 568.2401733398438 C 326.900390625 556.8831176757812 326.3774719238281 541.6741333007812 324.0942687988281 524.2575073242188 C 322.9462585449219 515.5001831054688 321.3617248535156 506.2240295410156 319.3847961425781 496.6864318847656 C 317.3608093261719 486.9214782714844 314.92333984375 476.8742980957031 312.1399841308594 466.8238830566406 C 309.2582702636719 456.4184265136719 305.9924011230469 445.9624328613281 302.4330749511719 435.7463073730469 C 298.7192077636719 425.0859069824219 294.6494750976562 414.5836181640625 290.3367919921875 404.5312194824219 C 281.0068054199219 382.7836303710938 270.5517272949219 363.0906982421875 259.26171875 345.9993591308594 C 246.7760009765625 327.097900390625 233.5429229736328 308.5090942382812 219.9299926757812 290.7492370605469 C 209.0421295166016 276.5440368652344 197.8865356445312 262.8328247070312 186.773193359375 249.9964294433594 C 168.2239227294922 228.5713500976562 155.9446716308594 216.7256622314453 155.3489379882812 216.1534118652344 C 154.9380950927734 215.6534576416016 149.7339324951172 209.2989501953125 143.2261352539062 200.3329620361328 C 137.0710601806641 191.8524322509766 128.5602569580078 179.3594970703125 122.9692001342773 168.0036315917969 C 116.2670669555664 154.3908233642578 110.6665267944336 140.3308258056641 106.3234634399414 126.2141571044922 C 102.5875930786133 114.0714950561523 99.66399383544922 101.4922943115234 97.63386535644531 88.82602691650391 C 93.90733337402344 65.57709503173828 93.72892761230469 45.6298942565918 93.59866333007812 31.06522560119629 L 93.59839630126953 31.04376029968262 C 93.57913208007812 28.88685035705566 93.56088256835938 26.83756828308105 93.53243255615234 24.87562561035156 L 1086.323852539062 24.87562561035156 L 1086.323852539062 1103.875610351562 Z"/><path class="c" d="M 1085.823852539062 1103.375610351562 L 1085.823852539062 25.37562561035156 L 94.03945922851562 25.37562561035156 C 94.06402587890625 27.18428039550781 94.08078765869141 29.06736946105957 94.09839630126953 31.04242706298828 L 94.09835815429688 31.04242706298828 L 94.09853363037109 31.05376052856445 L 94.09866333007812 31.05762672424316 L 94.09866333007812 31.06069374084473 C 94.22879791259766 45.60962677001953 94.40692901611328 65.53495788574219 98.12746429443359 88.746826171875 C 100.1539993286133 101.3902893066406 103.072395324707 113.9466934204102 106.8013305664062 126.0672225952148 C 111.1366653442383 140.1585540771484 116.7271957397461 154.1936187744141 123.4178619384766 167.7826995849609 C 128.9931945800781 179.1069641113281 137.487060546875 191.5745544433594 143.6307983398438 200.0392303466797 C 150.0460815429688 208.8779296875 155.1908111572266 215.1727142333984 155.716796875 215.8134613037109 C 156.5473327636719 216.6125793457031 168.7799530029297 228.4497528076172 187.1511993408203 249.6692199707031 C 198.2710571289062 262.5130920410156 209.4329376220703 276.2320251464844 220.3269348144531 290.4449462890625 C 233.9467926025391 308.2141723632812 247.1867980957031 326.8126831054688 259.6789245605469 345.7237548828125 C 270.9851989746094 362.8399047851562 281.4546508789062 382.5592346191406 290.7962646484375 404.3340148925781 C 295.1134643554688 414.397216796875 299.1875915527344 424.9104309082031 302.9051818847656 435.5817565917969 C 306.4681396484375 445.8080139160156 309.7371826171875 456.2745666503906 312.6218566894531 466.6904296875 C 315.4081420898438 476.7514953613281 317.8482666015625 486.8093566894531 319.8743896484375 496.5849609375 C 321.8538513183594 506.1345520019531 323.4403991699219 515.423095703125 324.5899963378906 524.1924438476562 C 326.8783874511719 541.6488037109375 327.401611328125 556.89990234375 326.1033325195312 568.2968139648438 C 326.0425415039062 568.8298950195312 325.9664001464844 570.1748046875 325.8608093261719 572.040283203125 C 325.5526733398438 577.479736328125 324.9789428710938 587.6045532226562 323.54931640625 601.2529296875 C 321.7937316894531 618.0120239257812 319.3009338378906 634.72216796875 316.1398620605469 650.9190673828125 C 311.956787109375 672.35205078125 306.593994140625 692.90869140625 300.2001342773438 712.0178833007812 C 296.4873352050781 723.1141357421875 292.3675842285156 733.8885498046875 287.955322265625 744.0413818359375 C 283.154541015625 755.088134765625 277.8817443847656 765.6881713867188 272.2834777832031 775.5468139648438 C 261.7763977050781 794.05029296875 250.9639892578125 811.3430786132812 240.1466674804688 826.94482421875 C 230.6126708984375 840.6957397460938 221.1133270263672 853.142822265625 211.1061248779297 864.9973754882812 C 192.8511962890625 886.6224365234375 176.6582641601562 901.6732177734375 163.6469268798828 913.766845703125 L 163.6429290771484 913.7705688476562 L 163.6387939453125 913.7742919921875 L 163.6343994140625 913.7783203125 L 163.6343841552734 913.7782592773438 C 154.2770843505859 922.4757080078125 146.1953430175781 929.9880981445312 139.7106628417969 937.691650390625 C 132.7944030761719 945.9081420898438 126.485595703125 954.6725463867188 120.9595947265625 963.7413330078125 C 114.1115951538086 974.9789428710938 108.2506637573242 987.0261840820312 103.5394668579102 999.5481567382812 C 100.8817291259766 1006.612182617188 98.53772735595703 1013.968566894531 96.57239532470703 1021.4130859375 C 94.46613311767578 1029.391357421875 92.73652648925781 1037.69140625 91.43159484863281 1046.082641601562 C 90.04226684570312 1055.01513671875 89.09519958496094 1064.299926757812 88.61666107177734 1073.67919921875 C 88.12542724609375 1083.304565429688 88.11410522460938 1093.29052734375 88.58256530761719 1103.375610351562 L 1085.823852539062 1103.375610351562 M 1086.82373046875 1104.376708984375 L 1086.823852539062 1104.375610351562 L 87.62933349609375 1104.375610351562 C 87.11319732666016 1093.930541992188 87.10973358154297 1083.586059570312 87.61799621582031 1073.628295898438 C 88.0982666015625 1064.214477539062 89.04892730712891 1054.89501953125 90.44346618652344 1045.928955078125 C 91.75386047363281 1037.5029296875 93.49066162109375 1029.168823242188 95.60546112060547 1021.157897949219 C 97.57959747314453 1013.68017578125 99.93412780761719 1006.291076660156 102.6034622192383 999.196044921875 C 107.3365325927734 986.6160278320312 113.2250671386719 974.5121459960938 120.105598449707 963.220947265625 C 125.6582641601562 954.1085815429688 131.9970703125 945.3025512695312 138.9456024169922 937.047607421875 C 145.4716033935547 929.2949829101562 153.5767974853516 921.7613525390625 162.9617309570312 913.0382690429688 L 162.9661254882812 913.0343017578125 C 175.9579925537109 900.9588012695312 192.1262664794922 885.9309692382812 210.3419952392578 864.352294921875 C 220.3289337158203 852.5217895507812 229.809326171875 840.0992431640625 239.3249359130859 826.3751220703125 C 250.1245269775391 810.798828125 260.9209289550781 793.5316162109375 271.4138488769531 775.0531005859375 C 276.9946594238281 765.2252197265625 282.25146484375 754.6572265625 287.0381164550781 743.642822265625 C 291.4393310546875 733.5155029296875 295.5485229492188 722.7685546875 299.2518615722656 711.7005615234375 C 305.6318664550781 692.6324462890625 310.9836120605469 672.1181640625 315.1583862304688 650.7274780273438 C 318.313720703125 634.5596313476562 320.8022766113281 617.8789672851562 322.5548095703125 601.1488037109375 C 323.9822692871094 587.5208129882812 324.554931640625 577.4109497070312 324.8626708984375 571.979736328125 C 324.9729309082031 570.0308227539062 325.0458679199219 568.7433471679688 325.1097412109375 568.1834716796875 C 326.3990783691406 556.8659057617188 325.8764038085938 541.698974609375 323.5985412597656 524.3224487304688 C 322.4521179199219 515.577880859375 320.8697204589844 506.3139038085938 318.8952026367188 496.7879028320312 C 316.8733215332031 487.0330810546875 314.4383850097656 476.9967041015625 311.6581420898438 466.9573669433594 C 308.7796020507812 456.5635070800781 305.5170593261719 446.1178894042969 301.9609375 435.9108276367188 C 298.2510681152344 425.2620239257812 294.1856079101562 414.7706909179688 289.8773193359375 404.7283020019531 C 280.5590515136719 383.0080261230469 270.1181335449219 363.3414916992188 258.8445434570312 346.2749633789062 C 246.3649291992188 327.3828125 233.1386566162109 308.8036193847656 219.533203125 291.0533447265625 C 208.6518707275391 276.8568115234375 197.5026702880859 263.1533508300781 186.3952026367188 250.3237609863281 C 167.4353332519531 228.4244232177734 155.1041259765625 216.6109619140625 154.9818572998047 216.4941558837891 C 154.7589263916016 216.2233581542969 149.447998046875 209.7562866210938 142.8214569091797 200.6266937255859 C 136.6550598144531 192.1305541992188 128.1274566650391 179.6124267578125 122.5206604003906 168.2244262695312 C 115.8066635131836 154.5877532958984 110.1963958740234 140.5029602050781 105.8455963134766 126.3612289428711 C 102.1029281616211 114.1964263916016 99.17399597167969 101.5944290161133 97.14012908935547 88.90509033203125 C 93.40760040283203 65.61869049072266 93.22906494140625 45.64962768554688 93.09866333007812 31.06896018981934 L 93.09839630126953 31.05135917663574 C 93.07746124267578 28.69829368591309 93.05759429931641 26.47562599182129 93.02479553222656 24.37562561035156 L 1086.823852539062 24.37562561035156 L 1086.823852539062 1104.375610351562 L 1086.82373046875 1104.376708984375 Z"/></g></svg>